<?xml version="1.0" encoding="UTF-8"?>
<!DOCTYPE svg PUBLIC "-//W3C//DTD SVG 1.1//EN" "http://www.w3.org/Graphics/SVG/1.1/DTD/svg11.dtd">
<svg xmlns="http://www.w3.org/2000/svg" version="1.1" width="512px" height="512px" style="shape-rendering:geometricPrecision; text-rendering:geometricPrecision; image-rendering:optimizeQuality; fill-rule:evenodd; clip-rule:evenodd" xmlns:xlink="http://www.w3.org/1999/xlink">
<g><path style="opacity:0.948" fill="#000000" d="M 109.5,-0.5 C 178.5,-0.5 247.5,-0.5 316.5,-0.5C 333.591,4.75921 344.424,16.0925 349,33.5C 349.333,76.8333 349.667,120.167 350,163.5C 359.876,167.52 369.709,171.687 379.5,176C 386.066,180.965 390.232,187.465 392,195.5C 392.333,261.833 392.667,328.167 393,394.5C 398.474,405.861 405.808,407.195 415,398.5C 415.862,396.913 416.529,395.246 417,393.5C 417.667,310.5 417.667,227.5 417,144.5C 399.567,139.401 388.567,128.067 384,110.5C 383.333,89.1667 383.333,67.8333 384,46.5C 385.378,43.8917 387.545,42.3917 390.5,42C 393.817,41.5017 397.15,41.335 400.5,41.5C 400.333,28.8289 400.5,16.1623 401,3.5C 402.376,2.29493 403.542,0.961599 404.5,-0.5C 407.5,-0.5 410.5,-0.5 413.5,-0.5C 416.049,1.55577 417.549,4.22244 418,7.5C 418.5,18.8284 418.667,30.1618 418.5,41.5C 423.833,41.5 429.167,41.5 434.5,41.5C 434.333,29.1622 434.5,16.8288 435,4.5C 436.025,2.31305 437.525,0.646381 439.5,-0.5C 442.167,-0.5 444.833,-0.5 447.5,-0.5C 449.955,1.13988 451.455,3.47322 452,6.5C 452.5,18.1619 452.667,29.8286 452.5,41.5C 456.936,41.2101 461.27,41.7101 465.5,43C 467.487,44.3189 468.654,46.1523 469,48.5C 469.798,68.8509 469.632,89.1843 468.5,109.5C 464.887,128.111 453.887,139.445 435.5,143.5C 435.667,227.167 435.5,310.834 435,394.5C 432.041,411.624 421.874,420.958 404.5,422.5C 390.574,421.395 381.074,414.395 376,401.5C 374.68,333.878 374.013,266.211 374,198.5C 372.939,195.438 371.106,192.938 368.5,191C 362.615,188.224 356.615,185.724 350.5,183.5C 349.5,269.831 349.167,356.164 349.5,442.5C 358.506,442.334 367.506,442.5 376.5,443C 379.455,443.392 381.622,444.892 383,447.5C 383.667,467.5 383.667,487.5 383,507.5C 381.624,508.705 380.458,510.038 379.5,511.5C 268.5,511.5 157.5,511.5 46.5,511.5C 44.045,509.86 42.545,507.527 42,504.5C 41.3333,486.167 41.3333,467.833 42,449.5C 42.9729,445.594 45.4729,443.427 49.5,443C 58.1603,442.5 66.8269,442.334 75.5,442.5C 75.3333,308.5 75.5,174.5 76,40.5C 78.2546,19.4235 89.4213,5.75687 109.5,-0.5 Z M 112.5,17.5 C 179.167,17.3333 245.834,17.5 312.5,18C 321.965,20.7983 328.132,26.965 331,36.5C 331.5,171.833 331.667,307.166 331.5,442.5C 252.167,442.5 172.833,442.5 93.5,442.5C 93.3333,308.833 93.5,175.166 94,41.5C 95.571,29.7834 101.738,21.7834 112.5,17.5 Z M 401.5,59.5 C 418.167,59.5 434.833,59.5 451.5,59.5C 451.925,76.215 451.425,92.8817 450,109.5C 441.953,126.073 429.453,130.573 412.5,123C 408.578,119.749 405.412,115.916 403,111.5C 401.542,94.2361 401.042,76.9028 401.5,59.5 Z M 136.5,68.5 C 187.5,68.5 238.5,68.5 289.5,68.5C 289.5,96.5 289.5,124.5 289.5,152.5C 238.5,152.5 187.5,152.5 136.5,152.5C 136.5,124.5 136.5,96.5 136.5,68.5 Z M 244.5,244.5 C 236.28,260.605 227.78,276.605 219,292.5C 216.446,297.678 217.279,302.178 221.5,306C 228.755,307.225 236.089,307.892 243.5,308C 222.954,322.72 202.287,337.22 181.5,351.5C 190.106,333.787 199.106,316.287 208.5,299C 208.273,295.216 206.606,292.216 203.5,290C 196.167,289.667 188.833,289.333 181.5,289C 202.379,273.947 223.379,259.114 244.5,244.5 Z M 59.5,460.5 C 161.5,460.5 263.5,460.5 365.5,460.5C 365.5,471.5 365.5,482.5 365.5,493.5C 263.5,493.5 161.5,493.5 59.5,493.5C 59.5,482.5 59.5,471.5 59.5,460.5 Z"/></g>
<g><path style="opacity:0.948" fill="#000000" d="M 123.5,50.5 C 183.168,50.3333 242.834,50.5 302.5,51C 304.81,52.6374 306.31,54.804 307,57.5C 307.974,93.8803 307.641,130.214 306,166.5C 304.786,168.049 303.286,169.215 301.5,170C 242.167,170.667 182.833,170.667 123.5,170C 121.274,168.773 119.774,166.939 119,164.5C 118.333,128.5 118.333,92.5 119,56.5C 119.979,54.0324 121.479,52.0324 123.5,50.5 Z M 136.5,68.5 C 136.5,96.5 136.5,124.5 136.5,152.5C 187.5,152.5 238.5,152.5 289.5,152.5C 289.5,124.5 289.5,96.5 289.5,68.5C 238.5,68.5 187.5,68.5 136.5,68.5 Z"/></g>
<g><path style="opacity:0.901" fill="#000000" d="M 186.5,118.5 C 192.5,118.5 198.5,118.5 204.5,118.5C 204.5,124.5 204.5,130.5 204.5,136.5C 198.5,136.5 192.5,136.5 186.5,136.5C 186.5,130.5 186.5,124.5 186.5,118.5 Z"/></g>
<g><path style="opacity:0.899" fill="#000000" d="M 220.5,118.5 C 226.5,118.5 232.5,118.5 238.5,118.5C 238.5,124.5 238.5,130.5 238.5,136.5C 232.5,136.5 226.5,136.5 220.5,136.5C 220.5,130.5 220.5,124.5 220.5,118.5 Z"/></g>
<g><path style="opacity:0.899" fill="#000000" d="M 255.5,118.5 C 261.5,118.5 267.5,118.5 273.5,118.5C 273.5,124.5 273.5,130.5 273.5,136.5C 267.5,136.5 261.5,136.5 255.5,136.5C 255.5,130.5 255.5,124.5 255.5,118.5 Z"/></g>
<g><path style="opacity:0.939" fill="#000000" d="M 270.5,203.5 C 280.229,204.286 283.396,209.286 280,218.5C 267.294,242.08 254.46,265.58 241.5,289C 253.167,289.333 264.833,289.667 276.5,290C 281.438,293.426 282.605,297.926 280,303.5C 239.5,332.667 199,361.833 158.5,391C 147.903,394.405 143.403,390.572 145,379.5C 157.452,355.428 170.285,331.594 183.5,308C 171.762,307.936 160.096,307.27 148.5,306C 144.212,302.229 143.379,297.729 146,292.5C 187.145,262.165 228.645,232.498 270.5,203.5 Z M 244.5,244.5 C 236.28,260.605 227.78,276.605 219,292.5C 216.446,297.678 217.279,302.178 221.5,306C 228.755,307.225 236.089,307.892 243.5,308C 222.954,322.72 202.287,337.22 181.5,351.5C 190.106,333.787 199.106,316.287 208.5,299C 208.273,295.216 206.606,292.216 203.5,290C 196.167,289.667 188.833,289.333 181.5,289C 202.379,273.947 223.379,259.114 244.5,244.5 Z"/></g>
</svg>
