<?xml version="1.0" encoding="UTF-8"?>
<!DOCTYPE svg PUBLIC "-//W3C//DTD SVG 1.1//EN" "http://www.w3.org/Graphics/SVG/1.1/DTD/svg11.dtd">
<svg xmlns="http://www.w3.org/2000/svg" version="1.1" width="512px" height="512px" style="shape-rendering:geometricPrecision; text-rendering:geometricPrecision; image-rendering:optimizeQuality; fill-rule:evenodd; clip-rule:evenodd" xmlns:xlink="http://www.w3.org/1999/xlink">
<g><path style="opacity:0.928" fill="#000000" d="M 181.5,-0.5 C 195.167,-0.5 208.833,-0.5 222.5,-0.5C 245.327,2.26951 267.327,8.43617 288.5,18C 295.538,22.1857 296.205,27.1857 290.5,33C 289,33.5 287.5,34 286,34.5C 215.569,2.94432 149.069,9.77765 86.5,55C 34.439,98.1257 10.939,153.626 16,221.5C 26.161,292.712 63.661,343.545 128.5,374C 201.839,401.777 268.506,390.444 328.5,340C 362.949,307.377 382.949,267.377 388.5,220C 380.886,218.053 376.386,213.22 375,205.5C 370.848,274.675 338.348,325.508 277.5,358C 233.753,377.336 189.087,379.67 143.5,365C 91.0221,344.522 55.5221,307.689 37,254.5C 17.8666,182.927 35.0333,121.76 88.5,71C 143.641,27.034 204.308,17.7007 270.5,43C 289.259,51.6117 306.259,62.7784 321.5,76.5C 324.211,72.7881 327.544,69.7881 331.5,67.5C 323.506,60.3421 315.339,53.3421 307,46.5C 304.63,37.4341 308.13,33.6008 317.5,35C 332.465,45.8961 346.298,58.0628 359,71.5C 363.284,69.3834 367.451,67.0501 371.5,64.5C 372.997,58.5105 374.497,52.5105 376,46.5C 378.232,41.2694 382.065,37.7694 387.5,36C 395.167,35.3333 402.833,35.3333 410.5,36C 416.9,37.3994 421.066,41.2327 423,47.5C 424.378,53.4002 425.878,59.2336 427.5,65C 431.833,67.5 436.167,70 440.5,72.5C 447.555,69.9456 454.722,67.9456 462,66.5C 468.666,67.3332 473.666,70.6665 477,76.5C 479.333,80.8333 481.667,85.1667 484,89.5C 486.354,96.3571 485.354,102.69 481,108.5C 476.366,112.132 472.033,116.132 468,120.5C 467.333,125.167 467.333,129.833 468,134.5C 472.613,139.113 477.279,143.779 482,148.5C 485.033,153.106 486.033,158.106 485,163.5C 481.855,170.456 478.189,177.123 474,183.5C 468.651,188.145 462.485,189.645 455.5,188C 450.606,186.702 445.773,185.202 441,183.5C 436.843,185.65 432.677,187.816 428.5,190C 426.089,197.456 423.589,204.956 421,212.5C 416.731,217.654 411.231,220.654 404.5,221.5C 400.129,261.304 385.795,296.97 361.5,328.5C 369.819,337.319 378.319,345.986 387,354.5C 392.523,349.052 398.69,348.219 405.5,352C 441.062,387.395 476.395,422.895 511.5,458.5C 511.5,462.167 511.5,465.833 511.5,469.5C 498.5,484.5 484.5,498.5 469.5,511.5C 465.833,511.5 462.167,511.5 458.5,511.5C 449.228,502.73 440.062,493.73 431,484.5C 428.876,473.97 433.043,470.47 443.5,474C 450.333,480.833 457.167,487.667 464,494.5C 474.14,484.36 484.306,474.194 494.5,464C 476.986,446.319 459.319,428.819 441.5,411.5C 431.514,420.986 421.681,430.652 412,440.5C 411.333,441.167 411.333,441.833 412,442.5C 417.208,446.529 421.041,451.529 423.5,457.5C 422.282,464.282 418.282,466.782 411.5,465C 391.667,445.167 371.833,425.333 352,405.5C 348.219,398.69 349.052,392.523 354.5,387C 345.986,378.319 337.319,369.819 328.5,361.5C 278.784,398.844 223.117,412.177 161.5,401.5C 161.171,407.206 161.505,412.872 162.5,418.5C 168.561,423.392 173.728,429.059 178,435.5C 179.01,441.064 178.343,446.398 176,451.5C 173.667,455.5 171.333,459.5 169,463.5C 163.567,469.866 156.734,472.032 148.5,470C 143.822,468.498 139.155,466.998 134.5,465.5C 130.044,467.562 125.711,469.895 121.5,472.5C 119.443,480.251 116.943,487.918 114,495.5C 112.062,498.106 109.562,499.939 106.5,501C 98.5643,502.53 90.5643,502.863 82.5,502C 76.8865,500.718 72.7199,497.551 70,492.5C 68.1763,486.205 66.5096,479.872 65,473.5C 61.0954,470.602 56.9287,468.102 52.5,466C 45.6387,467.778 38.6387,469.278 31.5,470.5C 24.9045,470.619 19.7378,467.952 16,462.5C 11.7196,455.944 8.55289,448.944 6.5,441.5C 6.89599,437.581 8.06266,433.914 10,430.5C 14.3658,425.799 19.0325,421.466 24,417.5C 24.6667,412.5 24.6667,407.5 24,402.5C 18.9459,397.446 13.9459,392.446 9,387.5C 6.24237,382.299 5.90904,376.965 8,371.5C 11,366.167 14,360.833 17,355.5C 20.6309,351.562 25.1309,349.229 30.5,348.5C 37.7118,349.72 44.7118,351.72 51.5,354.5C 54.7089,352.735 57.7089,350.735 60.5,348.5C 26.0203,313.418 5.68693,271.418 -0.5,222.5C -0.5,208.833 -0.5,195.167 -0.5,181.5C 6.94419,122.767 33.9442,75.2671 80.5,39C 110.758,17.0815 144.424,3.91482 181.5,-0.5 Z M 201.5,44.5 C 244.863,45.7728 282.03,61.4395 313,91.5C 313.208,95.9177 313.874,100.251 315,104.5C 319.333,110.167 324.333,115.167 330,119.5C 330.667,125.167 330.667,130.833 330,136.5C 324.333,140.833 319.333,145.833 315,151.5C 313.543,155.741 313.209,160.074 314,164.5C 316.826,170.822 320.159,176.822 324,182.5C 329.364,188.061 335.864,189.895 343.5,188C 348.149,186.881 352.649,185.381 357,183.5C 362.821,245.019 340.987,294.186 291.5,331C 231.833,369 172.167,369 112.5,331C 52.1379,283.908 32.6379,223.408 54,149.5C 75.2545,94.911 114.421,61.0777 171.5,48C 181.595,46.3462 191.595,45.1795 201.5,44.5 Z M 391.5,51.5 C 396.875,51.1718 402.208,51.5052 407.5,52.5C 408.976,60.0516 411.142,67.3849 414,74.5C 421.814,81.1562 430.647,85.8229 440.5,88.5C 447.021,86.9941 453.521,85.3274 460,83.5C 461.89,83.7852 463.223,84.7852 464,86.5C 465.579,89.9939 467.413,93.3272 469.5,96.5C 464.541,100.957 459.708,105.624 455,110.5C 451.172,120.575 450.505,130.909 453,141.5C 453.667,142.833 454.333,144.167 455,145.5C 459.972,150.061 464.805,154.727 469.5,159.5C 467.214,164.431 464.214,168.765 460.5,172.5C 455.668,171.5 451.001,170 446.5,168C 442.833,167.333 439.167,167.333 435.5,168C 429.707,170.73 424.04,173.73 418.5,177C 415.96,179.205 413.793,181.705 412,184.5C 410.861,191.228 409.027,197.728 406.5,204C 401.467,204.829 396.467,204.662 391.5,203.5C 389.772,196.019 387.605,188.686 385,181.5C 378.423,176.125 371.256,171.625 363.5,168C 359.833,167.333 356.167,167.333 352.5,168C 347.3,170.184 341.966,171.517 336.5,172C 334.293,167.753 331.96,163.586 329.5,159.5C 333.518,154.648 338.018,150.315 343,146.5C 344.439,144.725 345.439,142.725 346,140.5C 346.667,132.167 346.667,123.833 346,115.5C 345.529,113.754 344.862,112.087 344,110.5C 339.524,105.934 334.857,101.601 330,97.5C 331.309,91.8868 333.976,86.8868 338,82.5C 344.42,85.3066 351.087,87.3066 358,88.5C 367.561,86.0529 376.228,81.7195 384,75.5C 385,73.8333 386,72.1667 387,70.5C 388.315,64.0825 389.815,57.7492 391.5,51.5 Z M 394.5,102.5 C 415.505,102.336 425.338,112.669 424,133.5C 420.136,146.064 411.802,152.397 399,152.5C 395.073,137.382 389.573,122.882 382.5,109C 386.147,106.013 390.147,103.846 394.5,102.5 Z M 378.5,141.5 C 376.044,138.633 374.877,135.299 375,131.5C 376.474,134.756 377.64,138.089 378.5,141.5 Z M 349.5,341.5 C 358.579,349.074 367.245,357.241 375.5,366C 372.333,369.167 369.167,372.333 366,375.5C 357.652,367.319 349.486,358.986 341.5,350.5C 344.189,347.48 346.856,344.48 349.5,341.5 Z M 72.5,360.5 C 74.3084,360.491 75.9751,360.991 77.5,362C 80.319,364.575 83.319,366.908 86.5,369C 70.0945,372.41 58.9278,381.91 53,397.5C 51.6415,402.775 51.3081,408.109 52,413.5C 54.9547,417.277 58.788,418.443 63.5,417C 65.0488,415.786 66.2155,414.286 67,412.5C 69.2487,391.582 80.7487,382.748 101.5,386C 115.095,392.357 120.262,402.857 117,417.5C 111.951,429.776 102.784,435.609 89.5,435C 83.5718,433.363 77.9052,431.197 72.5,428.5C 65.5608,430.378 63.3941,434.712 66,441.5C 83.6874,454.646 101.521,454.813 119.5,442C 133.888,428.061 137.554,411.727 130.5,393C 135.394,394.234 140.394,395.401 145.5,396.5C 145.083,405.915 145.583,415.248 147,424.5C 147.667,425.833 148.333,427.167 149,428.5C 153.982,432.315 158.482,436.648 162.5,441.5C 160.536,446.756 157.536,451.09 153.5,454.5C 148.802,453.101 144.136,451.601 139.5,450C 135.833,449.333 132.167,449.333 128.5,450C 121.25,453.539 114.417,457.706 108,462.5C 107,464.167 106,465.833 105,467.5C 104.004,473.822 102.504,479.989 100.5,486C 95.5,486.667 90.5,486.667 85.5,486C 83.1666,479.681 81.3332,473.181 80,466.5C 78.2068,463.705 76.0402,461.205 73.5,459C 67.9601,455.73 62.2935,452.73 56.5,450C 53.1667,449.333 49.8333,449.333 46.5,450C 41.2997,452.184 35.9664,453.517 30.5,454C 27.4368,449.931 24.7701,445.598 22.5,441C 27.4285,436.616 32.2619,432.116 37,427.5C 38.5621,425.043 39.5621,422.376 40,419.5C 40.8633,411.436 40.53,403.436 39,395.5C 33.9218,389.417 28.4218,383.584 22.5,378C 24.9589,374.25 27.2922,370.417 29.5,366.5C 30.3333,366.167 31.1667,365.833 32,365.5C 37.2821,366.594 42.4488,368.094 47.5,370C 57.1178,370.19 65.4512,367.024 72.5,360.5 Z M 396.5,367.5 C 401.085,370.414 405.085,374.08 408.5,378.5C 398.833,388.833 388.833,398.833 378.5,408.5C 374.5,405.167 370.833,401.5 367.5,397.5C 377.188,387.479 386.855,377.479 396.5,367.5 Z M 419.5,390.5 C 423.067,392.557 426.234,395.223 429,398.5C 429.667,399.167 429.667,399.833 429,400.5C 419.5,410 410,419.5 400.5,429C 396.886,427.422 393.719,424.922 391,421.5C 390.333,420.833 390.333,420.167 391,419.5C 400.702,409.965 410.202,400.298 419.5,390.5 Z"/></g>
<g><path style="opacity:0.932" fill="#000000" d="M 393.5,86.5 C 426.457,86.9561 441.957,103.623 440,136.5C 431.021,162.909 412.854,173.076 385.5,167C 367.851,159.834 358.517,146.667 357.5,127.5C 359.661,105.015 371.661,91.3488 393.5,86.5 Z M 394.5,102.5 C 390.147,103.846 386.147,106.013 382.5,109C 389.573,122.882 395.073,137.382 399,152.5C 411.802,152.397 420.136,146.064 424,133.5C 425.338,112.669 415.505,102.336 394.5,102.5 Z M 378.5,141.5 C 377.64,138.089 376.474,134.756 375,131.5C 374.877,135.299 376.044,138.633 378.5,141.5 Z"/></g>
<g><path style="opacity:0.927" fill="#000000" d="M 223.5,163.5 C 228.021,163.392 231.188,165.392 233,169.5C 241,190.167 249,210.833 257,231.5C 272.759,232.325 288.593,232.825 304.5,233C 310.194,238.862 309.527,243.862 302.5,248C 293.667,248.167 284.833,248.333 276,248.5C 266.404,248.642 256.904,248.142 247.5,247C 245.951,245.786 244.785,244.286 244,242.5C 238.049,226.639 231.716,210.973 225,195.5C 212.692,228.761 200.192,261.928 187.5,295C 182.166,298.708 177.666,297.875 174,292.5C 165,266.833 156,241.167 147,215.5C 140.876,226.251 134.376,236.751 127.5,247C 116.239,248.6 104.906,248.933 93.5,248C 86.0227,243.33 85.6893,238.33 92.5,233C 101.186,232.832 109.852,232.332 118.5,231.5C 126.587,217.662 134.42,203.662 142,189.5C 145.256,187.571 148.756,187.071 152.5,188C 154.049,189.214 155.215,190.714 156,192.5C 164.283,216.686 172.95,240.686 182,264.5C 194.197,232.244 206.197,199.911 218,167.5C 219.5,165.531 221.333,164.198 223.5,163.5 Z"/></g>
</svg>
