<?xml version="1.0" encoding="UTF-8"?>
<!DOCTYPE svg PUBLIC "-//W3C//DTD SVG 1.1//EN" "http://www.w3.org/Graphics/SVG/1.1/DTD/svg11.dtd">
<svg xmlns="http://www.w3.org/2000/svg" version="1.1" width="512px" height="512px" style="shape-rendering:geometricPrecision; text-rendering:geometricPrecision; image-rendering:optimizeQuality; fill-rule:evenodd; clip-rule:evenodd" xmlns:xlink="http://www.w3.org/1999/xlink">
<g><path style="opacity:0.962" fill="#000000" d="M 440.5,-0.5 C 447.833,-0.5 455.167,-0.5 462.5,-0.5C 488.5,6.16667 504.833,22.5 511.5,48.5C 511.5,55.8333 511.5,63.1667 511.5,70.5C 501.347,106.117 477.68,122.283 440.5,119C 433.593,117.36 426.927,115.36 420.5,113C 386.46,146.707 352.793,180.707 319.5,215C 327.564,228.925 331.564,243.925 331.5,260C 364.023,269.422 396.523,278.922 429,288.5C 444.472,270.923 463.305,266.09 485.5,274C 498.548,280.955 507.215,291.455 511.5,305.5C 511.5,312.167 511.5,318.833 511.5,325.5C 499.584,356.953 477.584,367.12 445.5,356C 431.074,347.671 422.741,335.171 420.5,318.5C 387.948,308.926 355.448,299.26 323,289.5C 314.614,304.886 302.614,316.553 287,324.5C 290.785,346.59 295.285,368.59 300.5,390.5C 342.799,395.964 362.633,419.964 360,462.5C 353.652,488.681 337.485,505.014 311.5,511.5C 304.167,511.5 296.833,511.5 289.5,511.5C 253.883,501.347 237.717,477.68 241,440.5C 244.649,422.197 254.482,408.364 270.5,399C 265.441,376.54 260.441,354.04 255.5,331.5C 237.582,330.696 221.582,324.863 207.5,314C 202.6,309.1 197.767,304.267 193,299.5C 158.67,313.61 124.503,328.11 90.5,343C 87.2608,376.963 68.5942,392.629 34.5,390C 16.3183,384.984 4.65165,373.484 -0.5,355.5C -0.5,348.833 -0.5,342.167 -0.5,335.5C 11.4163,304.047 33.4163,293.88 65.5,305C 69.9507,307.783 74.1174,310.95 78,314.5C 112.109,299.74 146.275,285.073 180.5,270.5C 177.935,250.825 181.602,232.325 191.5,215C 159.874,182.373 127.874,150.04 95.5,118C 74.6847,124.903 56.518,120.736 41,105.5C 29.3561,89.7194 27.3561,72.7194 35,54.5C 49.3235,32.1685 69.1569,25.3352 94.5,34C 114.787,44.7388 123.287,61.5721 120,84.5C 118.677,88.1084 118.011,91.7751 118,95.5C 149.833,127.333 181.667,159.167 213.5,191C 214.5,191.667 215.5,191.667 216.5,191C 235.346,180.209 255.346,177.542 276.5,183C 283.365,185.064 289.865,187.897 296,191.5C 330.293,158.207 364.293,124.54 398,90.5C 395.64,84.0733 393.64,77.4066 392,70.5C 388.717,33.3198 404.883,9.65314 440.5,-0.5 Z M 444.5,30.5 C 469.644,29.4764 481.477,41.4764 480,66.5C 474.051,83.2299 462.218,90.3966 444.5,88C 427.77,82.0511 420.603,70.2178 423,52.5C 426.35,41.3177 433.517,33.9844 444.5,30.5 Z M 70.5,61.5 C 84.6523,60.1515 90.8189,66.4848 89,80.5C 83.1346,90.2464 75.3013,92.0798 65.5,86C 58.9062,76.0145 60.5729,67.8478 70.5,61.5 Z M 246.5,211.5 C 273.542,209.067 291.042,220.733 299,246.5C 301.92,273.564 290.42,291.064 264.5,299C 237.436,301.92 219.936,290.42 212,264.5C 209.287,237.411 220.787,219.744 246.5,211.5 Z M 461.5,301.5 C 475.652,300.151 481.819,306.485 480,320.5C 474.135,330.246 466.301,332.08 456.5,326C 449.906,316.014 451.573,307.848 461.5,301.5 Z M 39.5,331.5 C 53.6523,330.151 59.8189,336.485 58,350.5C 52.1346,360.246 44.3013,362.08 34.5,356C 27.9062,346.014 29.5729,337.848 39.5,331.5 Z M 293.5,422.5 C 318.644,421.476 330.477,433.476 329,458.5C 323.051,475.23 311.218,482.397 293.5,480C 276.77,474.051 269.603,462.218 272,444.5C 275.35,433.318 282.517,425.984 293.5,422.5 Z"/></g>
</svg>
