<?xml version="1.0" encoding="UTF-8"?>
<!DOCTYPE svg PUBLIC "-//W3C//DTD SVG 1.1//EN" "http://www.w3.org/Graphics/SVG/1.1/DTD/svg11.dtd">
<svg xmlns="http://www.w3.org/2000/svg" version="1.1" width="512px" height="512px" style="shape-rendering:geometricPrecision; text-rendering:geometricPrecision; image-rendering:optimizeQuality; fill-rule:evenodd; clip-rule:evenodd" xmlns:xlink="http://www.w3.org/1999/xlink">
<g><path style="opacity:0.985" fill="#000000" d="M 226.5,127.5 C 288.501,127.333 350.501,127.5 412.5,128C 423.983,133.13 428.483,141.963 426,154.5C 424.167,163 419,168.167 410.5,170C 349.833,170.667 289.167,170.667 228.5,170C 217.526,167.353 212.193,160.353 212.5,149C 212.306,138.53 216.973,131.363 226.5,127.5 Z"/></g>
<g><path style="opacity:0.967" fill="#000000" d="M 101.5,233.5 C 204.167,233.333 306.834,233.5 409.5,234C 423.48,237.842 428.98,247.008 426,261.5C 424.056,270.398 418.556,275.565 409.5,277C 306.833,277.667 204.167,277.667 101.5,277C 87.52,273.158 82.02,263.992 85,249.5C 87.1875,240.672 92.6875,235.338 101.5,233.5 Z"/></g>
<g><path style="opacity:0.985" fill="#000000" d="M 100.5,340.5 C 161.168,340.333 221.834,340.5 282.5,341C 290.556,342.722 295.723,347.556 298,355.5C 300.806,368.387 296.306,377.553 284.5,383C 222.5,383.667 160.5,383.667 98.5,383C 86.7117,377.589 82.2117,368.422 85,355.5C 87.4548,347.543 92.6215,342.543 100.5,340.5 Z"/></g>
</svg>
