<?xml version="1.0" encoding="UTF-8"?>
<!DOCTYPE svg PUBLIC "-//W3C//DTD SVG 1.1//EN" "http://www.w3.org/Graphics/SVG/1.1/DTD/svg11.dtd">
<svg xmlns="http://www.w3.org/2000/svg" version="1.1" width="512px" height="512px" style="shape-rendering:geometricPrecision; text-rendering:geometricPrecision; image-rendering:optimizeQuality; fill-rule:evenodd; clip-rule:evenodd" xmlns:xlink="http://www.w3.org/1999/xlink">
<g><path style="opacity:0.937" fill="#000000" d="M 511.5,72.5 C 511.5,77.1667 511.5,81.8333 511.5,86.5C 508.235,94.6615 502.235,99.8281 493.5,102C 390.834,102.5 288.167,102.667 185.5,102.5C 185.666,107.844 185.499,113.177 185,118.5C 183.167,125.667 178.667,130.167 171.5,132C 145.5,132.667 119.5,132.667 93.5,132C 86.3333,130.167 81.8333,125.667 80,118.5C 79.5006,113.177 79.334,107.844 79.5,102.5C 58.8306,102.667 38.164,102.5 17.5,102C 8.76543,99.8281 2.76543,94.6615 -0.5,86.5C -0.5,81.8333 -0.5,77.1667 -0.5,72.5C 2.76543,64.3385 8.76543,59.1719 17.5,57C 38.164,56.5 58.8306,56.3334 79.5,56.5C 79.334,51.1563 79.5006,45.8229 80,40.5C 81.8333,33.3333 86.3333,28.8333 93.5,27C 119.5,26.3333 145.5,26.3333 171.5,27C 178.667,28.8333 183.167,33.3333 185,40.5C 185.499,45.8229 185.666,51.1563 185.5,56.5C 252.501,56.3333 319.501,56.5 386.5,57C 391.535,60.0133 392.702,64.1799 390,69.5C 389.097,70.7014 387.931,71.5348 386.5,72C 319.501,72.5 252.501,72.6667 185.5,72.5C 185.5,77.1667 185.5,81.8333 185.5,86.5C 287.501,86.6667 389.501,86.5 491.5,86C 496.833,81.6667 496.833,77.3333 491.5,73C 465.167,72.6667 438.833,72.3333 412.5,72C 407.776,69.5647 406.276,65.7314 408,60.5C 409.214,58.9512 410.714,57.7845 412.5,57C 439.5,56.3333 466.5,56.3333 493.5,57C 502.235,59.1719 508.235,64.3385 511.5,72.5 Z M 96.5,42.5 C 120.741,42.1723 144.908,42.5057 169,43.5C 169.827,67.7391 169.661,91.9058 168.5,116C 144.261,116.827 120.094,116.661 96,115.5C 95.1774,91.0943 95.3441,66.7609 96.5,42.5 Z M 19.5,72.5 C 39.5,72.5 59.5,72.5 79.5,72.5C 79.5,77.1667 79.5,81.8333 79.5,86.5C 59.4972,86.6666 39.4972,86.5 19.5,86C 14.2215,81.5028 14.2215,77.0028 19.5,72.5 Z"/></g>
<g><path style="opacity:0.939" fill="#000000" d="M 511.5,179.5 C 511.5,184.167 511.5,188.833 511.5,193.5C 508.235,201.661 502.235,206.828 493.5,209C 461.502,209.5 429.502,209.667 397.5,209.5C 397.666,214.844 397.499,220.177 397,225.5C 393.88,235.484 387.047,240.151 376.5,239.5C 376.5,249.833 376.5,260.167 376.5,270.5C 415.501,270.333 454.501,270.5 493.5,271C 502.235,273.172 508.235,278.339 511.5,286.5C 511.5,291.167 511.5,295.833 511.5,300.5C 508.992,307.296 504.325,312.129 497.5,315C 489.571,316.363 481.571,316.863 473.5,316.5C 473.998,319.487 474.498,322.487 475,325.5C 475.667,362.167 475.667,398.833 475,435.5C 472.49,444.01 467.157,450.01 459,453.5C 458.667,460.833 458.333,468.167 458,475.5C 456.833,480 454,482.833 449.5,484C 410.167,484.667 370.833,484.667 331.5,484C 327,482.833 324.167,480 323,475.5C 322.5,468.174 322.334,460.841 322.5,453.5C 298.8,449.972 283.633,436.638 277,413.5C 275.514,402.539 275.181,391.539 276,380.5C 279.013,375.465 283.18,374.298 288.5,377C 289.701,377.903 290.535,379.069 291,380.5C 291.333,388.833 291.667,397.167 292,405.5C 295.5,423.667 306.333,434.5 324.5,438C 367.5,438.667 410.5,438.667 453.5,438C 456.333,437.167 458.167,435.333 459,432.5C 459.667,397.167 459.667,361.833 459,326.5C 456.042,313.541 448.209,305.041 435.5,301C 417.833,300.667 400.167,300.333 382.5,300C 370.457,298.29 363.29,291.457 361,279.5C 360.667,254.167 360.333,228.833 360,203.5C 355.338,194.724 348.504,192.558 339.5,197C 337.383,198.731 335.883,200.898 335,203.5C 333.799,241.82 333.132,280.154 333,318.5C 330.081,324.025 325.581,325.858 319.5,324C 315.512,320.173 310.845,317.673 305.5,316.5C 298.656,317.843 294.156,321.843 292,328.5C 291.667,337.167 291.333,345.833 291,354.5C 286,361.167 281,361.167 276,354.5C 275.333,345.167 275.333,335.833 276,326.5C 276.578,323.097 277.745,319.93 279.5,317C 258.836,316.5 238.169,316.333 217.5,316.5C 217.666,322.176 217.499,327.843 217,333.5C 214.833,339.667 210.667,343.833 204.5,346C 178.167,346.667 151.833,346.667 125.5,346C 119.499,344.664 115.332,341.164 113,335.5C 111.743,329.231 111.243,322.898 111.5,316.5C 80.1649,316.667 48.8316,316.5 17.5,316C 8.76543,313.828 2.76543,308.661 -0.5,300.5C -0.5,295.833 -0.5,291.167 -0.5,286.5C 2.76543,278.339 8.76543,273.172 17.5,271C 48.8316,270.5 80.1649,270.333 111.5,270.5C 111.243,264.102 111.743,257.769 113,251.5C 115.332,245.836 119.499,242.336 125.5,241C 151.833,240.333 178.167,240.333 204.5,241C 210.667,243.167 214.833,247.333 217,253.5C 217.499,259.157 217.666,264.824 217.5,270.5C 250.833,270.5 284.167,270.5 317.5,270.5C 317.5,260.167 317.5,249.833 317.5,239.5C 296.522,240.508 287.856,230.508 291.5,209.5C 225.166,209.667 158.832,209.5 92.5,209C 85.8333,204 85.8333,199 92.5,194C 158.832,193.5 225.166,193.333 291.5,193.5C 291.5,188.833 291.5,184.167 291.5,179.5C 200.833,179.333 110.166,179.5 19.5,180C 14.1667,184.333 14.1667,188.667 19.5,193C 35.9249,193.029 52.2583,193.696 68.5,195C 72.8089,200.42 72.1423,205.086 66.5,209C 50.1667,209.667 33.8333,209.667 17.5,209C 8.76543,206.828 2.76543,201.661 -0.5,193.5C -0.5,188.833 -0.5,184.167 -0.5,179.5C 2.76543,171.339 8.76543,166.172 17.5,164C 108.833,163.5 200.166,163.333 291.5,163.5C 291.334,158.156 291.501,152.823 292,147.5C 293.833,140.333 298.333,135.833 305.5,134C 331.5,133.333 357.5,133.333 383.5,134C 390.667,135.833 395.167,140.333 397,147.5C 397.499,152.823 397.666,158.156 397.5,163.5C 429.502,163.333 461.502,163.5 493.5,164C 502.235,166.172 508.235,171.339 511.5,179.5 Z M 308.5,149.5 C 332.741,149.172 356.908,149.506 381,150.5C 381.667,174.5 381.667,198.5 381,222.5C 379.644,223.38 378.144,223.714 376.5,223.5C 376.666,216.159 376.5,208.826 376,201.5C 371.84,187.324 362.34,179.657 347.5,178.5C 332.859,179.231 323.359,186.564 319,200.5C 318.5,208.159 318.334,215.826 318.5,223.5C 314.894,223.789 311.394,223.456 308,222.5C 307.177,198.094 307.344,173.761 308.5,149.5 Z M 397.5,179.5 C 428.835,179.333 460.168,179.5 491.5,180C 496.833,184.333 496.833,188.667 491.5,193C 460.168,193.5 428.835,193.667 397.5,193.5C 397.5,188.833 397.5,184.167 397.5,179.5 Z M 128.5,256.5 C 152.741,256.172 176.908,256.506 201,257.5C 201.827,281.739 201.661,305.906 200.5,330C 176.493,330.833 152.493,330.666 128.5,329.5C 127.176,305.167 127.176,280.833 128.5,256.5 Z M 19.5,286.5 C 50.1667,286.5 80.8333,286.5 111.5,286.5C 111.5,291.167 111.5,295.833 111.5,300.5C 80.8315,300.667 50.1649,300.5 19.5,300C 14.2215,295.503 14.2215,291.003 19.5,286.5 Z M 217.5,286.5 C 250.833,286.5 284.167,286.5 317.5,286.5C 317.5,291.167 317.5,295.833 317.5,300.5C 284.167,300.5 250.833,300.5 217.5,300.5C 217.5,295.833 217.5,291.167 217.5,286.5 Z M 444.5,287.5 C 459.995,286.339 475.661,286.172 491.5,287C 496.833,291.333 496.833,295.667 491.5,300C 482.167,300.667 472.833,300.667 463.5,300C 458.321,293.971 451.987,289.804 444.5,287.5 Z M 338.5,454.5 C 373.167,454.5 407.833,454.5 442.5,454.5C 442.5,459.167 442.5,463.833 442.5,468.5C 407.833,468.5 373.167,468.5 338.5,468.5C 338.5,463.833 338.5,459.167 338.5,454.5 Z"/></g>
</svg>
