<?xml version="1.0" encoding="UTF-8"?>
<!DOCTYPE svg PUBLIC "-//W3C//DTD SVG 1.1//EN" "http://www.w3.org/Graphics/SVG/1.1/DTD/svg11.dtd">
<svg xmlns="http://www.w3.org/2000/svg" version="1.1" width="512px" height="512px" style="shape-rendering:geometricPrecision; text-rendering:geometricPrecision; image-rendering:optimizeQuality; fill-rule:evenodd; clip-rule:evenodd" xmlns:xlink="http://www.w3.org/1999/xlink">
<g><path style="opacity:0.989" fill="#000000" d="M 243.5,11.5 C 292.599,8.79222 329.432,28.4589 354,70.5C 373.772,113.063 370.106,153.396 343,191.5C 311.936,227.299 273.103,240.132 226.5,230C 179.655,215.479 152.488,183.979 145,135.5C 141.502,86.9925 160.335,50.1591 201.5,25C 214.875,18.1514 228.875,13.6514 243.5,11.5 Z"/></g>
<g><path style="opacity:0.955" fill="#000000" d="M 254.5,262.5 C 327.598,265.11 382.431,297.777 419,360.5C 430.657,383.127 437.657,407.127 440,432.5C 440.667,452.167 440.667,471.833 440,491.5C 438.833,495.333 436.333,497.833 432.5,499C 414.833,499.667 397.167,499.667 379.5,499C 371.19,494.451 369.357,487.951 374,479.5C 375.579,477.959 377.413,476.792 379.5,476C 391.829,475.5 404.162,475.333 416.5,475.5C 422.641,409.338 399.641,356.171 347.5,316C 298.65,283.98 246.983,278.647 192.5,300C 134.802,327.384 102.302,372.884 95,436.5C 94.5001,449.496 94.3334,462.496 94.5,475.5C 155.834,475.333 217.168,475.5 278.5,476C 286.81,480.549 288.643,487.049 284,495.5C 282.421,497.041 280.587,498.208 278.5,499C 211.833,499.667 145.167,499.667 78.5,499C 74.6667,497.833 72.1667,495.333 71,491.5C 70.3333,471.833 70.3333,452.167 71,432.5C 77.6797,370.936 106.846,323.436 158.5,290C 188.211,272.409 220.211,263.243 254.5,262.5 Z"/></g>
</svg>
